<?xml version="1.0" ?><svg id="OBJECT" viewBox="0 0 512 512" xmlns="http://www.w3.org/2000/svg"><defs><style>.cls-1{fill:#bddbff;}.cls-2{fill:#3d9ae2;}.cls-3{fill:#fff;}</style></defs><title/><rect class="cls-1" height="220" rx="40" ry="40" width="497" x="7.5" y="81"/><path class="cls-2" d="M464.5,308.5H47.5A47.56,47.56,0,0,1,0,261V121A47.56,47.56,0,0,1,47.5,73.5h417A47.55,47.55,0,0,1,512,121V261A47.55,47.55,0,0,1,464.5,308.5Zm-417-220A32.54,32.54,0,0,0,15,121V261a32.54,32.54,0,0,0,32.5,32.5h417A32.54,32.54,0,0,0,497,261V121a32.54,32.54,0,0,0-32.5-32.5Z"/><path class="cls-3" d="M101,241H411a20,20,0,0,1,20,20v40a0,0,0,0,1,0,0H81a0,0,0,0,1,0,0V261A20,20,0,0,1,101,241Z"/><path class="cls-2" d="M431,308.5H81a7.5,7.5,0,0,1-7.5-7.5V261A27.54,27.54,0,0,1,101,233.5H411A27.53,27.53,0,0,1,438.5,261v40A7.5,7.5,0,0,1,431,308.5Zm-342.5-15h335V261A12.51,12.51,0,0,0,411,248.5H101A12.52,12.52,0,0,0,88.5,261Z"/><path class="cls-3" d="M449.5,151h-30a15,15,0,0,1,0-30h30a15,15,0,0,1,0,30Z"/><path class="cls-2" d="M449.5,158.5h-30a22.5,22.5,0,0,1,0-45h30a22.5,22.5,0,0,1,0,45Zm-30-30a7.5,7.5,0,0,0,0,15h30a7.5,7.5,0,0,0,0-15Z"/><path class="cls-3" d="M359.5,151h-30a15,15,0,0,1,0-30h30a15,15,0,0,1,0,30Z"/><path class="cls-2" d="M359.5,158.5h-30a22.5,22.5,0,0,1,0-45h30a22.5,22.5,0,0,1,0,45Zm-30-30a7.5,7.5,0,0,0,0,15h30a7.5,7.5,0,0,0,0-15Z"/><path class="cls-2" d="M116,438.5a7.5,7.5,0,0,1,0-15,92.6,92.6,0,0,0,92.5-92.5,7.5,7.5,0,0,1,15,0A107.62,107.62,0,0,1,116,438.5Z"/><path class="cls-2" d="M68.28,391.14a86.9,86.9,0,0,1-29.84-5.28,7.5,7.5,0,0,1,5.13-14.09,72.58,72.58,0,0,0,92.92-43.33,7.5,7.5,0,1,1,14.1,5.12A87.65,87.65,0,0,1,68.28,391.14Z"/><path class="cls-2" d="M386.05,438.5A107.62,107.62,0,0,1,278.55,331a7.5,7.5,0,0,1,15,0,92.61,92.61,0,0,0,92.5,92.5,7.5,7.5,0,0,1,0,15Z"/><path class="cls-2" d="M433.73,391.14a87.65,87.65,0,0,1-82.31-57.58,7.5,7.5,0,1,1,14.09-5.12,72.6,72.6,0,0,0,92.93,43.33,7.5,7.5,0,1,1,5.13,14.09A87.18,87.18,0,0,1,433.73,391.14Z"/></svg>