<?xml version="1.0" ?><svg data-name="Layer 10" id="Layer_10" viewBox="0 0 100 100" xmlns="http://www.w3.org/2000/svg"><title/><path d="M64.28,9H35.72A13,13,0,0,0,23,22.21V73.79c0,6.73,5,12.28,11,12.93V91h9V87H57v4h9V86.72c6-.66,11-6.21,11-12.93V22.21A13,13,0,0,0,64.28,9Zm0,2A11,11,0,0,1,75,22.21V41H28V14.38A11.22,11.22,0,0,1,35.72,11ZM26,17.05V41H25V22.21C25,20.35,25,18.59,26,17.05ZM25,43h1V78.95c-1-1.54-1-3.3-1-5.16ZM41,89H36V87h5Zm23,0H59V87h5Zm.28-4H35.72A11.22,11.22,0,0,1,28,81.62V43H75V73.79A11,11,0,0,1,64.28,85ZM73,20H67V39h6ZM71,37H69V22h2Zm2,8H67V70h6ZM71,68H69V47h2Z"/></svg>