<?xml version="1.0" ?><svg xmlns="http://www.w3.org/2000/svg" xmlns:xlink="http://www.w3.org/1999/xlink" version="1.1" viewBox="0 0 512 512" style="enable-background:new 0 0 512 512;" xml:space="preserve"><g id="_x32_3_x2C__microwave_x2C__microwave_oven_x2C__furniture_and_household_x2C__kitchenware_x2C__heating"><g><path style="fill:#3A98FF;" d="M321,96H51c-5.522,0-10,4.478-10,10v260c0,5.522,4.478,10,10,10h270c5.522,0,10-4.478,10-10V106    C331,100.478,326.522,96,321,96z M311,356H61V116h250V356z"/><path style="fill:#3A98FF;" d="M141,336h90c33.084,0,60-26.916,60-60c0-5.522-4.478-10-10-10H91c-5.522,0-10,4.478-10,10    C81,309.084,107.916,336,141,336z M269.734,286c-4.451,17.233-20.13,30-38.734,30h-90c-18.604,0-34.283-12.767-38.734-30H269.734z    "/><path style="fill:#3A98FF;" d="M119.492,233.593c4.21,3.609,10.522,3.091,14.101-1.085l9.999-11.667    c9.028-10.531,9.028-25.819,0.001-36.35c-2.563-2.989-2.562-7.329,0-10.318l9.999-11.664c3.595-4.193,3.109-10.507-1.083-14.101    c-4.196-3.598-10.508-3.108-14.101,1.083l-10,11.665c-9.026,10.531-9.027,25.818,0,36.352c2.561,2.988,2.561,7.327-0.001,10.316    l-10,11.668C114.813,223.686,115.299,229.999,119.492,233.593z"/><path style="fill:#3A98FF;" d="M169.492,233.593c4.21,3.609,10.522,3.091,14.101-1.085l9.999-11.667    c9.028-10.531,9.028-25.819,0.001-36.35c-2.563-2.989-2.562-7.329,0-10.318l9.999-11.664c3.595-4.193,3.109-10.507-1.083-14.101    c-4.196-3.598-10.508-3.108-14.101,1.083l-10,11.665c-9.026,10.531-9.027,25.818,0,36.352c2.561,2.988,2.561,7.327-0.001,10.316    l-10,11.668C164.814,223.686,165.299,229.999,169.492,233.593z"/><path style="fill:#3A98FF;" d="M219.492,233.593c4.21,3.609,10.522,3.091,14.101-1.085l9.999-11.667    c9.028-10.531,9.028-25.819,0.001-36.35c-2.563-2.989-2.562-7.329,0-10.318l9.999-11.664c3.595-4.193,3.109-10.507-1.083-14.101    c-4.196-3.598-10.508-3.108-14.101,1.083l-10,11.665c-9.026,10.531-9.027,25.818,0,36.352c2.561,2.988,2.561,7.327-0.001,10.316    l-10,11.668C214.814,223.686,215.299,229.999,219.492,233.593z"/><path style="fill:#283954;" d="M431,296c-22.056,0-40,17.944-40,40s17.944,40,40,40s40-17.944,40-40S453.056,296,431,296z     M431,356c-11.028,0-20-8.972-20-20c0-7.384,4.032-13.829,10-17.294V326c0,5.522,4.478,10,10,10s10-4.478,10-10v-7.294    c5.968,3.465,10,9.91,10,17.294C451,347.028,442.028,356,431,356z"/><path style="fill:#283954;" d="M501,56H11C5.477,56,1,60.478,1,66v340c0,5.522,4.477,10,10,10h40v30c0,5.522,4.478,10,10,10h50    c4.669,0,8.717-3.231,9.751-7.784L128.072,416h255.856l7.321,32.216c1.034,4.553,5.082,7.784,9.751,7.784h50    c5.522,0,10-4.478,10-10v-30h40c5.522,0,10-4.478,10-10V66C511,60.478,506.522,56,501,56z M491,256H371V76h120V256z M21,76h330    v320c-19.053,0-319.026,0-330,0V76z M103.018,436H71v-20h36.563L103.018,436z M441,436h-32.018l-4.545-20H441V436z M371,396V276    h120v120C477.942,396,385.064,396,371,396z"/><path style="fill:#283954;" d="M401,156h60c5.522,0,10-4.477,10-10v-40c0-5.522-4.478-10-10-10h-60c-5.522,0-10,4.478-10,10v40    C391,151.523,395.478,156,401,156z M411,116h40v20h-40V116z"/><path style="fill:#283954;" d="M451,176h-40c-5.522,0-10,4.477-10,10s4.478,10,10,10h40c5.522,0,10-4.477,10-10    S456.522,176,451,176z"/><path style="fill:#283954;" d="M451,216h-40c-5.522,0-10,4.477-10,10s4.478,10,10,10h40c5.522,0,10-4.477,10-10    S456.522,216,451,216z"/></g></g><g id="Layer_1"/></svg>