<?xml version="1.0" ?><svg data-name="Layer 25" id="Layer_25" viewBox="0 0 100 100" xmlns="http://www.w3.org/2000/svg"><title/><path d="M13,74H30V26H13Zm2-46H28V72H15Zm6.58,9.67a3.5,3.5,0,1,0-3.5-3.5A3.51,3.51,0,0,0,21.58,37.67Zm0-5a1.5,1.5,0,1,1-1.5,1.5A1.5,1.5,0,0,1,21.58,32.66Zm0,13.31a3.5,3.5,0,1,0-3.5-3.5A3.51,3.51,0,0,0,21.58,46Zm0-5a1.5,1.5,0,1,1-1.5,1.5A1.5,1.5,0,0,1,21.58,41Zm4.34,20.72.51-.51L25,59.76l-.51.51a5.23,5.23,0,0,0-5.84,0l-.51-.51-1.41,1.41.51.51a5.23,5.23,0,0,0,0,5.86l-.5.5,1.41,1.41.49-.49a5.23,5.23,0,0,0,5.88,0l.49.49L26.43,68l-.5-.5a5.23,5.23,0,0,0,0-5.86Zm-4.34,6.18a3.2,3.2,0,0,1-1.47-.37l.4-.4-1.41-1.41-.39.39a3.12,3.12,0,0,1,0-2.93l.38.38,1.41-1.41-.38-.38a3.12,3.12,0,0,1,2.91,0l-.38.38,1.41,1.41.38-.38a3.12,3.12,0,0,1,0,2.93l-.39-.39-1.41,1.41.4.4A3.2,3.2,0,0,1,21.58,67.86ZM23,64.62a1.37,1.37,0,1,1-1.37-1.37A1.37,1.37,0,0,1,23,64.62ZM69,26V74H87V26ZM85,72H71V28H85ZM78.25,37.67a3.5,3.5,0,1,0-3.5-3.5A3.51,3.51,0,0,0,78.25,37.67Zm0-5a1.5,1.5,0,1,1-1.5,1.5A1.5,1.5,0,0,1,78.25,32.66Zm0,13.31a3.5,3.5,0,1,0-3.5-3.5A3.51,3.51,0,0,0,78.25,46Zm0-5a1.5,1.5,0,1,1-1.5,1.5A1.5,1.5,0,0,1,78.25,41ZM73.9,67.54l-.5.5,1.41,1.41.49-.49a5.23,5.23,0,0,0,5.88,0l.49.49L83.1,68l-.5-.5a5.23,5.23,0,0,0,0-5.86l.51-.51-1.41-1.41-.51.51a5.23,5.23,0,0,0-5.84,0l-.51-.51L73.4,61.17l.51.51a5.23,5.23,0,0,0,0,5.86Zm4.35-6.17a3.2,3.2,0,0,1,1.45.36l-.38.38,1.41,1.41.38-.38a3.12,3.12,0,0,1,0,2.93l-.39-.39-1.41,1.41.4.4a3.11,3.11,0,0,1-2.95,0l.4-.4-1.41-1.41-.39.39a3.12,3.12,0,0,1,0-2.93l.38.38,1.41-1.41-.38-.38A3.2,3.2,0,0,1,78.25,61.38Zm-1.37,3.24A1.37,1.37,0,1,1,78.25,66,1.37,1.37,0,0,1,76.88,64.62ZM33,71h4v3h5V71H57v3h5V71h4V56H33Zm7.27,1.29H38.81V70.83h1.46Zm20.09,0H58.9V70.83h1.46ZM35,69V68H64v1ZM64,58v8H35V58Zm-9,1H36v5H55Zm-2,3H38V61H53Zm3.31-.51a1.16,1.16,0,1,1,1.16,1.16A1.16,1.16,0,0,1,56.31,61.49Zm4.25,0a1.16,1.16,0,1,1,1.16,1.16A1.16,1.16,0,0,1,60.56,61.49Z"/></svg>