<?xml version="1.0" ?><svg id="Слой_1" style="enable-background:new 0 0 512 512;" version="1.1" viewBox="0 0 512 512" xml:space="preserve" xmlns="http://www.w3.org/2000/svg" xmlns:xlink="http://www.w3.org/1999/xlink"><style type="text/css">
	.st0{fill:#FFFFFF;}
	.st1{fill:none;stroke:#000000;stroke-width:12;stroke-miterlimit:10;}
	.st2{fill:#FCFBFB;stroke:#000000;stroke-width:12;stroke-miterlimit:10;}
	.st3{fill:#FFF7C3;}
	.st4{fill:#EDF1AD;}
	.st5{fill:#FFD6C6;}
</style><g><rect class="st0" height="370.3" width="330.9" x="130.5" y="90.5"/><rect class="st1" height="370.3" width="330.9" x="95.8" y="91.5"/><line class="st2" x1="104.2" x2="382.9" y1="160.3" y2="160.3"/><line class="st2" x1="134.8" x2="156" y1="127.9" y2="127.9"/><line class="st2" x1="204.4" x2="282.8" y1="127.9" y2="127.9"/><line class="st2" x1="426.7" x2="263.5" y1="423.8" y2="423.8"/><line class="st2" x1="97.3" x2="130.8" y1="423.8" y2="423.8"/><path class="st3" d="M286.7,295.1l-62.9,54.5c-14.5-13.6-23.6-33-23.6-54.5c0-24.9,12.2-46.9,30.9-60.5L286.7,295.1z"/><path class="st4" d="M355.2,281.4h-62.9l-55.6-60.5c12.3-8.9,27.4-14.2,43.8-14.2C321.7,206.7,355.2,240.2,355.2,281.4z"/><line class="st1" x1="95.8" x2="62.6" y1="461.8" y2="461.8"/><line class="st1" x1="53.4" x2="38.2" y1="461.8" y2="461.8"/><g><path class="st5" d="M355.7,304.2c0,39.2-31.8,71-71,71c-18.8,0-35.9-7.3-48.5-19.2l59.8-51.8H355.7z"/></g><g><circle class="st1" cx="261.2" cy="292.1" r="83.1"/><polyline class="st1" points="204.4,352.7 274.4,292.1 344.4,292.1   "/><line class="st1" x1="274.4" x2="212.5" y1="292.1" y2="224.7"/></g></g></svg>